<svg width="19" height="18" viewBox="0 0 19 18" fill="none" xmlns="http://www.w3.org/2000/svg">
<path d="M9.13564 2.76726C10.5518 2.66218 11.9621 3.0391 13.1357 3.83692C14.3094 4.6348 15.177 5.80657 15.5955 7.1609C16.0139 8.51528 15.958 9.97112 15.4371 11.2896C14.9162 12.6081 13.9615 13.7104 12.7303 14.4166C12.025 14.8212 11.2528 15.0823 10.4578 15.1915L11.8134 16.5414L10.4021 17.9586L6.67815 14.25L10.4021 10.5414L11.8134 11.9586L10.6462 13.1209C11.0253 13.0258 11.3919 12.8787 11.7351 12.6818C12.5741 12.2005 13.2232 11.4503 13.577 10.5547C13.9308 9.65926 13.9687 8.6709 13.6846 7.75128C13.4004 6.83161 12.8108 6.03442 12.0113 5.49093C11.2118 4.94738 10.25 4.69007 9.28364 4.76178C8.31731 4.83349 7.40472 5.22987 6.6952 5.88512C5.98575 6.5403 5.52142 7.41535 5.37731 8.36659C5.23321 9.3178 5.41769 10.2898 5.90101 11.1235C6.17801 11.6013 6.01523 12.2131 5.53744 12.4901C5.05964 12.7671 4.44776 12.6044 4.17076 12.1266C3.45955 10.8998 3.18757 9.46839 3.39988 8.06701C3.61217 6.66567 4.29597 5.37843 5.3383 4.41583C6.38055 3.4533 7.7195 2.87235 9.13564 2.76726Z" fill="white"/>
</svg>
