<svg width="24" height="24" viewBox="0 0 24 24" fill="none" xmlns="http://www.w3.org/2000/svg">
<path fill-rule="evenodd" clip-rule="evenodd" d="M11.8466 3.36598C11.5621 3.87818 11.2484 4.6793 10.7806 5.88384L10.721 6.03717C10.478 6.66285 10.2694 7.20014 10.0519 7.62732C9.81969 8.08362 9.54072 8.49179 9.11715 8.81701C8.69161 9.14375 8.22681 9.30492 7.7285 9.40485C7.26588 9.49761 6.70396 9.54956 6.05617 9.60944L5.75851 9.63697C4.59595 9.74449 3.84004 9.8171 3.33518 9.94014C3.197 9.97382 3.10442 10.005 3.04392 10.0297C3.07819 10.0912 3.13758 10.1822 3.2394 10.3096C3.57254 10.7263 4.13554 11.2587 4.99761 12.0686L5.55674 12.594C5.60156 12.6361 5.64594 12.6777 5.68984 12.7188C6.40632 13.3902 6.99543 13.9423 7.27699 14.6861C7.32895 14.8234 7.37209 14.9639 7.40617 15.1067C7.59 15.877 7.41846 16.6707 7.2075 17.6467C7.19464 17.7062 7.18165 17.7663 7.16857 17.8272L7.09127 18.187C6.85804 19.2726 6.70134 20.0082 6.64402 20.5327C6.61995 20.753 6.62047 20.8869 6.62499 20.9617C6.69017 20.9303 6.79294 20.874 6.94216 20.7735C7.36699 20.4875 7.93044 20.0152 8.76636 19.3118L8.80119 19.2824C9.30776 18.8561 9.74092 18.4916 10.1256 18.2259C10.5333 17.9444 10.9616 17.719 11.4721 17.6348C11.8221 17.5771 12.1788 17.5771 12.5287 17.6348C13.0393 17.719 13.4676 17.9444 13.8753 18.2259C14.2599 18.4916 14.6931 18.8561 15.1997 19.2824L15.2345 19.3118C16.0704 20.0152 16.6339 20.4875 17.0587 20.7735C17.2079 20.874 17.3107 20.9303 17.3759 20.9617C17.3804 20.8869 17.3809 20.753 17.3569 20.5327C17.2995 20.0082 17.1428 19.2726 16.9096 18.187L16.8323 17.8272C16.8192 17.7663 16.8062 17.7062 16.7934 17.6467C16.5824 16.6707 16.4109 15.877 16.5947 15.1067C16.6288 14.9639 16.6719 14.8234 16.7239 14.6861C17.0054 13.9423 17.5946 13.3902 18.311 12.7188C18.3549 12.6777 18.3993 12.6361 18.4441 12.594L19.0033 12.0686C19.8653 11.2587 20.4283 10.7263 20.7615 10.3096C20.8633 10.1822 20.9227 10.0912 20.957 10.0297C20.8965 10.005 20.8039 9.97382 20.6657 9.94014C20.1608 9.8171 19.4049 9.74449 18.2424 9.63697L17.9447 9.60944C17.2969 9.54956 16.735 9.49761 16.2724 9.40485C15.7741 9.30492 15.3093 9.14375 14.8837 8.81701C14.4601 8.49179 14.1812 8.08362 13.9489 7.62732C13.7315 7.20015 13.5229 6.66287 13.2799 6.0372L13.2203 5.88384C12.7524 4.6793 12.4388 3.87818 12.1543 3.36598C12.0931 3.25587 12.0418 3.17483 12.0004 3.1157C11.9591 3.17483 11.9077 3.25587 11.8466 3.36598ZM21.0599 10.0856L21.0466 10.0743C21.0571 10.0813 21.0599 10.0856 21.0599 10.0856ZM10.0982 2.39491C10.4374 1.7841 11.0021 1 12.0004 1C12.9988 1 13.5635 1.7841 13.9027 2.39491C14.2622 3.04222 14.6244 3.97474 15.0557 5.08528L15.1271 5.26904C15.3919 5.95094 15.565 6.39328 15.7313 6.72011C15.8879 7.0278 16.0003 7.15279 16.1017 7.23067C16.2012 7.30704 16.3435 7.37929 16.6656 7.44389C17.0119 7.51333 17.4673 7.55675 18.1774 7.62242L18.5079 7.65299C19.5663 7.75081 20.4728 7.8346 21.1393 7.99701C21.8054 8.15936 22.619 8.49073 22.9104 9.38561C23.1978 10.2679 22.7539 11.0202 22.3236 11.5584C21.89 12.1008 21.2189 12.7313 20.4306 13.4718L19.8136 14.0515C18.8937 14.9158 18.6909 15.1392 18.5944 15.3941C18.5726 15.4516 18.5545 15.5107 18.5401 15.571C18.4753 15.8425 18.5187 16.1549 18.7877 17.4071L18.8775 17.8253C19.0951 18.8378 19.2751 19.6755 19.345 20.3155C19.4088 20.8987 19.4374 21.6922 18.928 22.2778C18.6535 22.5936 18.2929 22.8249 17.8873 22.9392C17.119 23.1557 16.4162 22.752 15.9417 22.4325C15.4166 22.079 14.7705 21.5352 13.9941 20.8818L13.9468 20.842C13.3958 20.3783 13.0355 20.0766 12.7387 19.8716C12.4562 19.6765 12.3085 19.6255 12.2033 19.6081C12.0689 19.586 11.932 19.586 11.7975 19.6081C11.6924 19.6255 11.5446 19.6765 11.2621 19.8716C10.9654 20.0766 10.6051 20.3783 10.0541 20.842L10.0067 20.8819C9.23032 21.5353 8.58427 22.079 8.0592 22.4325C7.58468 22.752 6.88188 23.1557 6.11355 22.9392C5.70793 22.8249 5.34742 22.5936 5.07285 22.2778C4.5635 21.6922 4.59212 20.8987 4.65585 20.3155C4.72578 19.6755 4.90579 18.8378 5.12336 17.8252L5.21319 17.4071C5.48221 16.1549 5.52559 15.8425 5.4608 15.571C5.44642 15.5107 5.42826 15.4516 5.40649 15.3941C5.31002 15.1392 5.10716 14.9158 4.18726 14.0515L3.57022 13.4718C2.782 12.7313 2.11085 12.1008 1.67725 11.5584C1.24697 11.0202 0.803095 10.2679 1.09042 9.38561C1.38186 8.49073 2.19547 8.15936 2.86162 7.99701C3.52803 7.8346 4.43461 7.75081 5.49304 7.65298C5.52004 7.65049 5.54713 7.64798 5.57432 7.64547L5.82351 7.62242C6.53361 7.55675 6.98896 7.51333 7.33527 7.44389C7.65738 7.37929 7.79968 7.30704 7.89915 7.23067C8.00058 7.15279 8.11292 7.0278 8.26953 6.72011C8.43588 6.39328 8.60895 5.95094 8.87381 5.26904L8.94517 5.08531C9.37647 3.97476 9.73864 3.04223 10.0982 2.39491Z" fill="#90AAB9"/>
</svg>
